<svg width="100" height="100" viewBox="0 0 100 100" fill="none" xmlns="http://www.w3.org/2000/svg">
<path d="M43.7565 18.3118L44.1966 21.4649C42.8819 25.6029 41.8906 28.8382 41.2227 31.1706C40.5484 33.4564 40.2666 34.9963 40.3774 35.7904C40.5665 37.1451 41.4265 37.7148 42.9575 37.4996L52.4425 5.30247C55.3504 2.75036 59.5648 1.08621 65.0857 0.310033C70.6531 -0.472667 75.6469 0.397029 80.0671 2.91912C84.9106 5.76273 87.7496 10.1741 88.5841 16.1533C89.2817 21.1516 88.2761 26.3178 85.5673 31.6521C82.852 36.9396 79.0048 41.7433 74.0258 46.0631C71.2719 44.9737 68.8744 44.5725 66.833 44.8595C64.7916 45.1465 63.9111 46.2943 64.1915 48.303C66.3843 48.4233 68.3944 48.7599 70.2218 49.3127C72.0892 49.8122 74.3591 50.9934 77.0316 52.8563L97.939 67.4206C98.7058 82.7446 92.2461 91.3687 78.5597 93.2929C73.5027 94.0038 68.9822 93.3057 64.9983 91.1986C60.3063 88.7623 56.3204 84.6074 53.0408 78.7338L44.3 63.3877L43.952 63.4367C42.421 63.6519 41.7468 64.4135 41.9293 65.7215C42.0467 66.5623 42.9798 68.503 44.7287 71.5435C46.5167 74.8643 49.1172 79.2616 52.5303 84.7354L53.2833 90.1307C49.0247 95.2065 42.2559 98.3967 32.977 99.7012C27.9664 100.406 23.5151 99.8645 19.6233 98.0778C15.2414 96.1695 12.7311 92.9265 12.0922 88.3486L2 16.0377C6.16581 10.9749 13.1201 7.75863 22.863 6.3889C27.92 5.67795 32.3615 6.14901 36.1874 7.80207C40.5359 9.81033 43.0589 13.3136 43.7565 18.3118Z" fill="black"/>
<path d="M65.402 0.265488C70.7019 -0.479609 75.4551 0.343641 79.6617 2.73524C84.2711 5.43178 86.9717 9.61698 87.7636 15.2908C88.4255 20.0338 87.4662 24.937 84.8855 30.0002C82.2986 35.0192 78.6345 39.5794 73.8931 43.681C71.2722 42.6483 68.9901 42.2686 67.0468 42.5418C65.1035 42.815 64.2649 43.9047 64.5309 45.8107C66.6182 45.924 68.5315 46.2426 70.2708 46.7664C72.0481 47.2397 74.2083 48.3597 76.7516 50.1264L96.6472 63.9392C97.3709 78.4812 91.2182 86.668 78.1894 88.4997C73.3753 89.1765 69.0726 88.5159 65.2812 86.5179C60.8158 84.2079 57.0234 80.2666 53.904 74.694L45.59 60.1343L45.2587 60.1809C43.8013 60.3858 43.1591 61.1088 43.3324 62.35C43.4437 63.1479 44.3312 64.9892 45.9947 67.8739C47.6953 71.0246 50.1689 75.1965 53.4155 80.3897L54.1301 85.5094C50.0742 90.3281 43.6297 93.3584 34.7966 94.6002C30.0267 95.2708 25.7898 94.7591 22.0859 93.0652C17.9156 91.2561 15.5273 88.1795 14.921 83.8354L11.4219 58.7641L21.5977 57.3335C22.2221 57.2457 22.6574 56.6665 22.5699 56.0398C22.4825 55.413 21.9053 54.9762 21.2809 55.0639L11.1051 56.4945L10.7884 54.225L20.9641 52.7944C21.5886 52.7066 22.0239 52.1274 21.9364 51.5007C21.8489 50.874 21.2718 50.4371 20.6474 50.5249L10.4716 51.9554L10.1549 49.6859L20.3306 48.2553C20.9551 48.1675 21.3904 47.5883 21.3029 46.9616C21.2154 46.3349 20.6383 45.898 20.0139 45.9858L9.83812 47.4164L5.34421 15.2172C9.31174 10.4109 15.9329 7.35582 25.2077 6.0519C30.0218 5.3751 34.2494 5.82028 37.8906 7.38742C42.0291 9.29142 44.4293 12.6149 45.0913 17.3579L45.5089 20.35C44.2557 24.2775 43.3108 27.3481 42.6741 29.5619C42.0312 31.7313 41.7623 33.1928 41.8675 33.9464C42.0469 35.2319 42.8653 35.7722 44.3228 35.5673L53.3649 5.00854C56.1339 2.58539 60.1463 1.00438 65.402 0.265488Z" fill="url(#paint0_linear_101_3)"/>
<defs>
<linearGradient id="paint0_linear_101_3" x1="-26.2015" y1="-29.088" x2="83.3796" y2="120.076" gradientUnits="userSpaceOnUse">
<stop stop-color="#E0E0E0"/>
<stop offset="0.593118" stop-color="#E70A7D"/>
<stop offset="1" stop-color="#720C41"/>
</linearGradient>
</defs>
</svg>
